<?xml version="1.0" encoding="utf-8" ?><svg xmlns="http://www.w3.org/2000/svg" xmlns:xlink="http://www.w3.org/1999/xlink" width="162" height="162" viewBox="0 0 162 162"><defs><linearGradient id="gradient_0" gradientUnits="userSpaceOnUse" x1="29.105185" y1="149.40625" x2="124.11503" y2="2.6549275"><stop offset="0" stop-color="#FAB400"/><stop offset="1" stop-color="#FFDC23"/></linearGradient></defs><path fill="url(#gradient_0)" d="M38.0664 12.6073C38.3763 12.5989 38.6863 12.5929 38.9963 12.5891C47.7709 12.499 56.6531 12.6438 65.4483 12.6004C83.0216 12.4678 100.596 12.4913 118.169 12.6708C130.531 12.9102 141.138 10.1943 150.735 20.0913C158.584 28.1855 158.662 35.7958 158.907 46.3958C159.002 51.4845 159.06 56.5738 159.081 61.6634L158.969 82.0913C158.987 96.1756 160.042 109.717 149.209 119.987C147.405 121.697 145.316 123.674 143.028 124.653C131.866 129.425 116.127 128.262 104.062 128.315C99.7956 128.228 95.7284 128.348 91.1807 128.296C82.6232 128.198 73.0367 127.608 64.57 128.785C62.9839 129.006 58.6209 133.136 57.0347 134.337C49.2497 140.231 41.4274 147.531 31.8659 150.325C31.0655 150.551 29.5721 150.341 29.0088 149.82C25.9137 146.96 28.057 140.912 27.4829 136.58C26.0229 135.543 23.4626 134.362 21.7472 133.711C11.8995 129.974 4.30373 123.198 3.73398 112.075C3.52235 107.944 3.52304 103.742 3.51729 99.4776L3.57903 76.714C3.49918 67.0466 3.50078 57.3788 3.58382 47.7115C3.7217 38.6401 2.82372 30.7378 9.38996 23.3986C17.8056 13.9923 26.1834 13.4382 38.0664 12.6073Z"/><path fill="#FEFEFE" d="M90.9338 37.6124C98.6742 37.3879 113.835 37.2534 121.047 40.3454C128.104 43.3703 128.127 53.7878 118.985 54.2218C115.598 55.2295 110.622 53.2893 107.551 53.5602C100.674 54.1668 77.7112 51.1473 74.2525 57.1741C74.2857 57.4736 74.2619 57.6689 74.4562 57.91C75.3777 59.0534 77.5789 59.5655 78.9497 59.8686C82.587 60.6727 86.4444 60.8942 90.1468 61.2696C98.0845 62.0746 106.051 62.6362 113.969 63.6077C119.94 64.3403 127.251 67.528 131.015 72.3913C133.47 75.5621 133.574 79.8094 133.084 83.6305C132.63 87.1657 131.81 90.4009 128.836 92.6738C121.521 98.2647 94.5758 96.2614 85.3126 95.0231C75.4845 94.8617 63.6432 93.3901 55.2664 87.7494C55.141 85.4503 55.1007 83.7392 55.2498 81.4547C60.7738 74.9574 65.7034 78.8684 72.7697 79.4092C77.9124 79.8028 83.131 79.6026 88.2527 80.2331C94.7531 81.0332 101.227 80.9836 107.76 80.9761C111.024 80.9811 114.345 81.0778 117.579 80.563C117.251 79.4625 116.666 78.0736 116.239 76.9781C115.705 76.711 114.059 75.8731 113.539 75.8386C99.3818 74.9001 85.3135 73.5422 71.2664 71.4161C70.1574 71.2483 68.6617 70.8637 67.5555 70.5357C62.1531 68.9339 53.3448 66.1623 52.8149 59.4575C52.5383 55.9582 55.7678 50.3797 58.0542 47.7984C59.5706 46.0864 62.1828 44.6615 64.1899 43.5499C73.5942 38.1308 80.4447 38.0908 90.9338 37.6124Z"/><path fill="#FEFEFE" d="M38.0319 88.1322C45.1423 89.8033 52.8193 90.7168 59.9553 92.7478C62.4747 93.4649 65.8265 94.8468 68.1885 95.165C66.8629 97.6995 66.0855 99.1202 63.9203 101.027C59.6079 103.991 56.2457 103.231 51.5002 103.323C43.9865 103.468 38.5001 100.45 36.6412 92.7892C36.1862 90.9143 36.9635 89.5545 38.0319 88.1322Z"/></svg>